<?xml version="1.0" encoding="UTF-8"?>
<svg version="1.1" xmlns="http://www.w3.org/2000/svg" width="465" height="127">
<path d="M0 0 C0 0.66 0 1.32 0 2 C31.68 2.495 31.68 2.495 64 3 C64 25.11 64 47.22 64 70 C41.89 70 19.78 70 -3 70 C-3 48.55 -3 27.1 -3 5 C-3.99 5 -4.98 5 -6 5 C-5.625 3.0625 -5.625 3.0625 -5 1 C-3 0 -3 0 0 0 Z M-1 5 C-1 25.79 -1 46.58 -1 68 C9.209375 68.020625 19.41875 68.04125 29.9375 68.0625 C33.16523193 68.071604 36.39296387 68.08070801 39.71850586 68.09008789 C42.2589514 68.09300676 44.7993974 68.09555539 47.33984375 68.09765625 C48.00407852 68.10026962 48.66831329 68.102883 49.35267639 68.10557556 C51.30012857 68.11285688 53.24760258 68.1133384 55.19506836 68.11352539 C56.29427109 68.115746 57.39347382 68.11796661 58.52598572 68.12025452 C60.9435147 68.28046633 60.9435147 68.28046633 62 67 C62.09396057 65.06693502 62.11743517 63.13041162 62.11352539 61.19506836 C62.11334412 59.30709534 62.11334412 59.30709534 62.11315918 57.38098145 C62.10812272 56.03393505 62.10295608 54.68688913 62.09765625 53.33984375 C62.09664917 52.12204224 62.09564209 50.90424072 62.09460449 49.64953613 C62.08935295 45.07884791 62.07539185 40.50817306 62.0625 35.9375 C62.041875 25.728125 62.02125 15.51875 62 5 C41.21 5 20.42 5 -1 5 Z " fill="#F8FAFA" transform="translate(36,23)"/>
<path d="M0 0 C2.536875 -0.04125 5.07375 -0.0825 7.6875 -0.125 C8.47729248 -0.14320801 9.26708496 -0.16141602 10.08081055 -0.18017578 C14.17371242 -0.21226074 17.4009506 -0.01123349 21 2 C23.3125 5.125 23.3125 5.125 25 8 C24.505 8.94875 24.01 9.8975 23.5 10.875 C21.85575631 13.72278166 21.85575631 13.72278166 22 16 C22.495 16.37125 22.99 16.7425 23.5 17.125 C25.48466783 19.60583479 25.45029364 21.86260007 25.59375 24.96484375 C24.60272186 28.3617231 23.05605223 29.27066555 20 31 C16.54248688 31.47530649 13.1688783 31.37695305 9.6875 31.25 C6.490625 31.1675 3.29375 31.085 0 31 C0 20.77 0 10.54 0 0 Z M4 4 C4 7.3 4 10.6 4 14 C5.7492214 14.08142927 7.49954542 14.13938541 9.25 14.1875 C10.22453125 14.22230469 11.1990625 14.25710937 12.203125 14.29296875 C15.41231982 13.95681007 16.72309523 13.25024312 19 11 C19.58350505 8.45709375 19.58350505 8.45709375 19 6 C15.47320901 3.64880601 13.97120515 3.78556548 9.8125 3.875 C8.72582031 3.89304688 7.63914062 3.91109375 6.51953125 3.9296875 C5.68808594 3.95289063 4.85664063 3.97609375 4 4 Z M4 18 C3.97310784 19.47906892 3.95365379 20.95827483 3.9375 22.4375 C3.92589844 23.26121094 3.91429687 24.08492187 3.90234375 24.93359375 C3.76732652 26.99163938 3.76732652 26.99163938 5 28 C10.24804423 28.41789982 15.27697171 28.59004777 20 26 C21.26472065 24.94570314 21.26472065 24.94570314 21.25 22.5625 C21.1675 21.716875 21.085 20.87125 21 20 C17.2632157 17.50881047 15.25548181 17.7934774 10.8125 17.875 C9.54019531 17.89304687 8.26789063 17.91109375 6.95703125 17.9296875 C5.98121094 17.95289062 5.00539063 17.97609375 4 18 Z " fill="#F9FBFB" transform="translate(381,32)"/>
<path d="M0 0 C4.16100925 2.37485255 7.04628861 5.41048102 9.5 9.5 C10.7121177 15.5605885 10.14074055 19.84220878 7.2109375 25.203125 C4.78562141 28.80198113 2.05901272 30.64699576 -2 32 C-7.61599916 32.36826224 -11.17665989 32.21556007 -16 29 C-20.0157583 25.0276553 -22.12343299 21.44191197 -22.3125 15.75 C-22.25533455 10.73577315 -20.91833335 8.05324076 -18 4 C-12.88980663 -0.64563034 -6.62228444 -1.10972886 0 0 Z M-15 7 C-17.38598167 10.57897251 -17.78579503 12.71590055 -18 17 C-16.44328176 22.10257647 -14.69445282 25.33269726 -10 28 C-6.13716896 28.48285388 -3.7988824 28.36312836 -0.25 26.75 C2.75327481 24.41411959 4.71462966 22.44112023 5.46875 18.6328125 C5.52428988 14.17573753 5.53016696 10.9873046 2.625 7.4375 C-1.01116948 4.06105691 -2.98755477 3.7141114 -7.96484375 3.77734375 C-10.90092462 4.09856565 -12.70920498 5.18083925 -15 7 Z " fill="#FAFBFC" transform="translate(195,32)"/>
<path d="M0 0 C4.021875 -0.0928125 4.021875 -0.0928125 8.125 -0.1875 C8.95789551 -0.21481201 9.79079102 -0.24212402 10.64892578 -0.27026367 C15.50273718 -0.3241177 18.81697656 0.27277043 23 3 C25.4915904 6.7373856 25.45793285 8.57331583 25 13 C23.20437595 15.75329021 21.94745078 17.52627461 19 19 C20.38264837 21.86867231 21.92148553 24.56024032 23.625 27.25 C24.07101562 27.95640625 24.51703125 28.6628125 24.9765625 29.390625 C25.31429688 29.92171875 25.65203125 30.4528125 26 31 C23.734375 31.30859375 23.734375 31.30859375 21 31 C19.078125 28.84765625 19.078125 28.84765625 17.25 26.0625 C14.50912815 22.24511393 14.50912815 22.24511393 10.484375 20.11328125 C7.75181443 19.79832723 7.75181443 19.79832723 4 20 C4 23.63 4 27.26 4 31 C2.68 31 1.36 31 0 31 C0 20.77 0 10.54 0 0 Z M4 5 C3.92773498 6.85287502 3.9161878 8.70833878 3.9375 10.5625 C3.94652344 11.57441406 3.95554687 12.58632813 3.96484375 13.62890625 C3.97644531 14.41136719 3.98804688 15.19382812 4 16 C11.19706368 16.40967157 11.19706368 16.40967157 18.125 14.8125 C20.4636417 12.55181302 20.91910845 11.23566202 21 8 C19.27773504 4.75150023 19.27773504 4.75150023 16 4 C14.12686336 3.90661782 12.25045638 3.87005157 10.375 3.875 C9.39273437 3.87242188 8.41046875 3.86984375 7.3984375 3.8671875 C5.04774989 3.72994035 5.04774989 3.72994035 4 5 Z " fill="#FBFCFD" transform="translate(319,32)"/>
<path d="M0 0 C5.62475513 1.12495103 5.62475513 1.12495103 8.19140625 4.421875 C8.74376953 5.11796875 9.29613281 5.8140625 9.86523438 6.53125 C10.42533203 7.2634375 10.98542969 7.995625 11.5625 8.75 C12.12646484 9.46671875 12.69042969 10.1834375 13.27148438 10.921875 C14.3307847 12.26985016 15.38490077 13.62192866 16.43188477 14.97949219 C18.26316474 17.33908632 20.13412982 19.66766227 22 22 C22.33 14.74 22.66 7.48 23 0 C24.32 0 25.64 0 27 0 C27 10.23 27 20.46 27 31 C21.37472012 29.87494402 21.37472012 29.87494402 18.7734375 26.54296875 C18.2165625 25.84236328 17.6596875 25.14175781 17.0859375 24.41992188 C16.52132812 23.68322266 15.95671875 22.94652344 15.375 22.1875 C14.51648438 21.09985352 14.51648438 21.09985352 13.640625 19.99023438 C12.07833398 18.00467149 10.5322567 16.00880447 9 14 C8.44393066 13.30173096 7.88786133 12.60346191 7.31494141 11.8840332 C6 10 6 10 6 8 C5.34 8 4.68 8 4 8 C4 15.59 4 23.18 4 31 C2.68 31 1.36 31 0 31 C0 20.77 0 10.54 0 0 Z " fill="#F7F9FA" transform="translate(139,32)"/>
<path d="M0 0 C7.59 0 15.18 0 23 0 C23 1.32 23 2.64 23 4 C17.06 4 11.12 4 5 4 C5 7.3 5 10.6 5 14 C10.61 14 16.22 14 22 14 C21.67 15.32 21.34 16.64 21 18 C15.72 18 10.44 18 5 18 C5 21.3 5 24.6 5 28 C10.94 28 16.88 28 23 28 C23 28.99 23 29.98 23 31 C15.41 31 7.82 31 0 31 C0 20.77 0 10.54 0 0 Z " fill="#FBFCFD" transform="translate(351,32)"/>
<path d="M0 0 C3.625 1.5 3.625 1.5 6 3 C5.01 4.32 4.02 5.64 3 7 C2.17242187 6.50886719 2.17242187 6.50886719 1.328125 6.0078125 C-1.38780923 4.83212285 -3.30551759 4.79751362 -6.25 4.875 C-7.58804687 4.90207031 -7.58804687 4.90207031 -8.953125 4.9296875 C-9.62859375 4.95289063 -10.3040625 4.97609375 -11 5 C-11.00763334 7.92610709 -11.00763334 7.92610709 -10 11 C-7.13911286 12.71210344 -7.13911286 12.71210344 -3.625 13.6875 C3.77589558 16.07515035 3.77589558 16.07515035 6 19 C7.28279175 22.39023533 7.09302585 23.75029905 5.8125 27.1875 C3.28290909 31.11272727 3.28290909 31.11272727 0 32 C-6.49205899 32.6492059 -10.43981028 31.31245345 -16 28 C-16 27.01 -16 26.02 -16 25 C-12 25 -12 25 -10.1875 26 C-7.0721474 27.42416119 -4.38033453 27.18779636 -1 27 C-0.34 26.67 0.32 26.34 1 26 C1 24.35 1 22.7 1 21 C-0.010625 20.566875 -1.02125 20.13375 -2.0625 19.6875 C-2.69800781 19.41164063 -3.33351563 19.13578125 -3.98828125 18.8515625 C-5.28819202 18.30130901 -6.59793357 17.77349156 -7.91796875 17.2734375 C-11.65676585 15.82256101 -14.33008205 14.75731539 -16 11 C-16 6.92364568 -15.61344006 4.77174717 -13.0625 1.5625 C-8.67798101 -0.67449949 -4.83164767 -0.67042001 0 0 Z " fill="#F9FAFB" transform="translate(292,32)"/>
<path d="M0 0 C1.32 0 2.64 0 4 0 C4.02187378 0.91495239 4.02187378 0.91495239 4.04418945 1.84838867 C4.11894775 4.62871064 4.21551482 7.40786824 4.3125 10.1875 C4.33505859 11.14720703 4.35761719 12.10691406 4.38085938 13.09570312 C4.56274872 20.08051706 4.56274872 20.08051706 8 26 C11.95485583 27.17180914 14.06892942 27.4048133 17.875 25.75 C20.26175558 24.10021499 20.26175558 24.10021499 21 21 C21.14715199 19.37432921 21.24721867 17.74413143 21.31640625 16.11328125 C21.35830078 15.17548828 21.40019531 14.23769531 21.44335938 13.27148438 C21.48267578 12.29501953 21.52199219 11.31855469 21.5625 10.3125 C21.60568359 9.32443359 21.64886719 8.33636719 21.69335938 7.31835938 C21.79941654 4.87904454 21.90147714 2.43962887 22 0 C23.32 0 24.64 0 26 0 C26.11674705 3.70806596 26.18743274 7.4156554 26.25 11.125 C26.28351563 12.17171875 26.31703125 13.2184375 26.3515625 14.296875 C26.43069565 20.54839412 26.23275738 24.26927117 22 29 C18.50973246 31.90855628 15.53886217 32.48713716 10.9921875 32.28125 C7.78044741 31.82782787 5.65312559 30.85101785 3 29 C-0.91030338 23.39277251 -0.34477687 17.67416999 -0.1875 11.125 C-0.17396484 10.05507813 -0.16042969 8.98515625 -0.14648438 7.8828125 C-0.11128624 5.25468489 -0.06204693 2.62760806 0 0 Z " fill="#F7F8F9" transform="translate(243,32)"/>
<path d="M0 0 C2.34643555 0.19311523 2.34643555 0.19311523 5 1 C6.39379883 3.13305664 6.39379883 3.13305664 7.45703125 5.91015625 C7.84697266 6.89951172 8.23691406 7.88886719 8.63867188 8.90820312 C9.02603516 9.94912109 9.41339844 10.99003906 9.8125 12.0625 C10.21919922 13.10728516 10.62589844 14.15207031 11.04492188 15.22851562 C12.04791601 17.81270052 13.03186821 20.4025964 14 23 C16.18639521 20.26632529 17.71054657 17.68588702 19.04296875 14.453125 C19.56987305 13.18662109 19.56987305 13.18662109 20.10742188 11.89453125 C20.64206055 10.58548828 20.64206055 10.58548828 21.1875 9.25 C21.73954102 7.91775391 21.73954102 7.91775391 22.30273438 6.55859375 C23.20692623 4.374442 24.10581317 2.1882624 25 0 C26.65 0 28.3 0 30 0 C25.76523017 10.90234861 21.53763458 21.67986283 16 32 C14.18847656 31.88232422 14.18847656 31.88232422 12 31 C10.44433594 28.36376953 10.44433594 28.36376953 8.984375 24.8828125 C8.72368225 24.26985321 8.4629895 23.65689392 8.19439697 23.02536011 C7.64626891 21.72870354 7.10539827 20.4289586 6.57128906 19.12646484 C5.75340237 17.13329151 4.91405333 15.15031666 4.0703125 13.16796875 C0 3.48101877 0 3.48101877 0 0 Z " fill="#F8FAFB" transform="translate(208,32)"/>
<path d="M0 0 C0 0.66 0 1.32 0 2 C23.265 2.495 23.265 2.495 47 3 C46.67 3.66 46.34 4.32 46 5 C30.49 5 14.98 5 -1 5 C-1 25.46 -1 45.92 -1 67 C-1.33 67 -1.66 67 -2 67 C-2.70907293 46.32373511 -3.16168488 25.69069023 -3 5 C-3.99 5 -4.98 5 -6 5 C-5.625 3.0625 -5.625 3.0625 -5 1 C-3 0 -3 0 0 0 Z " fill="#F5F7F5" transform="translate(36,23)"/>
<path d="M0 0 C5.67154439 1.13430888 6.88735164 2.77629365 10 7.1875 C10.83209379 8.32772852 11.66542442 9.46705549 12.5 10.60546875 C13.10968628 11.45093262 13.10968628 11.45093262 13.73168945 12.31347656 C15.01890612 14.02514022 16.38703418 15.6311992 17.79296875 17.24609375 C20 20 20 20 20.3125 22.875 C20.209375 23.57625 20.10625 24.2775 20 25 C15.9815568 23.66051893 14.42338427 20.96976016 12 17.6875 C11.56171875 17.10548828 11.1234375 16.52347656 10.671875 15.92382812 C9.44135832 14.28746333 8.2203984 12.64392482 7 11 C6.01 9.68 5.02 8.36 4 7 C3.67 13.27 3.34 19.54 3 26 C2.01 26 1.02 26 0 26 C0 17.42 0 8.84 0 0 Z " fill="#FAFBFB" transform="translate(44,47)"/>
<path d="M0 0 C0.66 0 1.32 0 2 0 C2 26.4 2 52.8 2 80 C1.34 80 0.68 80 0 80 C0 53.6 0 27.2 0 0 Z " fill="#F4F9F9" transform="translate(118,20)"/>
<path d="M0 0 C2.24940295 -0.08119503 4.49964871 -0.13927819 6.75 -0.1875 C8.00296875 -0.22230469 9.2559375 -0.25710937 10.546875 -0.29296875 C14.1771332 0.01502827 15.5250288 0.38686293 18 3 C19 6.375 19 6.375 19 10 C17.23358828 12.80189446 15.96950178 14.51524911 13 16 C13.433125 16.55429687 13.86625 17.10859375 14.3125 17.6796875 C15.1478125 18.76636719 15.1478125 18.76636719 16 19.875 C16.556875 20.59429687 17.11375 21.31359375 17.6875 22.0546875 C19 24 19 24 19 26 C16.875 26 16.875 26 14 25 C10.27993332 21.19281232 8 18.41836712 8 13 C9.98 12.01 11.96 11.02 14 10 C14 8.02 14 6.04 14 4 C9.71 3.67 5.42 3.34 1 3 C0.67 2.01 0.34 1.02 0 0 Z " fill="#F6F8F8" transform="translate(70,47)"/>
<path d="M0 0 C1.32 0 2.64 0 4 0 C4 11.88 4 23.76 4 36 C2.68 36 1.36 36 0 36 C0 24.12 0 12.24 0 0 Z " fill="#ECF1EF" transform="translate(65,42)"/>
<path d="M0 0 C4.39718646 1.09929662 4.79997334 1.55450729 7.25 5.0625 C8.03117188 6.16271484 8.03117188 6.16271484 8.828125 7.28515625 C9.21484375 7.85105469 9.6015625 8.41695312 10 9 C10.33 6.03 10.66 3.06 11 0 C11.99 0 12.98 0 14 0 C14 4.95 14 9.9 14 15 C11 15 11 15 9.17578125 13.25 C8.56089844 12.5075 7.94601563 11.765 7.3125 11 C6.68988281 10.2575 6.06726563 9.515 5.42578125 8.75 C4.95527344 8.1725 4.48476562 7.595 4 7 C3.67 9.64 3.34 12.28 3 15 C2.01 15.33 1.02 15.66 0 16 C0 10.72 0 5.44 0 0 Z " fill="#F8FBFC" transform="translate(239,73)"/>
<path d="M0 0 C7.59 0 15.18 0 23 0 C23 1.32 23 2.64 23 4 C17.06 4 11.12 4 5 4 C5 5.65 5 7.3 5 9 C4.67 7.68 4.34 6.36 4 5 C3.34 5 2.68 5 2 5 C1.67 13.58 1.34 22.16 1 31 C0.67 31 0.34 31 0 31 C0 20.77 0 10.54 0 0 Z " fill="#EBEFF0" transform="translate(351,32)"/>
<path d="M0 0 C8.3984375 -0.1953125 8.3984375 -0.1953125 11 0 C13 2 13 2 13.25 4.375 C13 7 13 7 11.875 9 C10.69689905 11.09393753 10.69689905 11.09393753 11.875 13.75 C12.24625 14.4925 12.6175 15.235 13 16 C9.83884224 14.63016497 9.0072908 14.0109362 7 11 C4.94074861 10.27617533 4.94074861 10.27617533 3 10 C3 11.65 3 13.3 3 15 C2.01 15 1.02 15 0 15 C0 10.05 0 5.1 0 0 Z M3 2 C3 3.65 3 5.3 3 7 C5.31 7 7.62 7 10 7 C9.67 5.35 9.34 3.7 9 2 C7.02 2 5.04 2 3 2 Z " fill="#F9FBFA" transform="translate(319,73)"/>
<path d="M0 0 C3.96 0 7.92 0 12 0 C12 0.66 12 1.32 12 2 C9.03 2 6.06 2 3 2 C3 3.32 3 4.64 3 6 C5.64 6 8.28 6 11 6 C11 6.99 11 7.98 11 9 C8.36 9 5.72 9 3 9 C3 10.32 3 11.64 3 13 C5.97 13 8.94 13 12 13 C12 13.99 12 14.98 12 16 C10.18757948 16.02687279 8.37504767 16.04633715 6.5625 16.0625 C5.55316406 16.07410156 4.54382813 16.08570312 3.50390625 16.09765625 C1 16 1 16 0 15 C-0.07313567 12.46950598 -0.09247527 9.96695163 -0.0625 7.4375 C-0.05798828 6.72658203 -0.05347656 6.01566406 -0.04882812 5.28320312 C-0.03700864 3.52209987 -0.01907263 1.76103964 0 0 Z " fill="#F3F5F6" transform="translate(293,73)"/>
<path d="M0 0 C3.63 0 7.26 0 11 0 C11 0.66 11 1.32 11 2 C8.03 2 5.06 2 2 2 C2 3.32 2 4.64 2 6 C4.64 6 7.28 6 10 6 C10 6.99 10 7.98 10 9 C7.36 9 4.72 9 2 9 C2 10.32 2 11.64 2 13 C4.97 13 7.94 13 11 13 C11 13.99 11 14.98 11 16 C7.37 16 3.74 16 0 16 C-1.15704915 10.21475424 -1.4320262 5.7281048 0 0 Z " fill="#F3F5F6" transform="translate(268,73)"/>
<path d="M0 0 C0.33 0.99 0.66 1.98 1 3 C-0.27875 2.95875 -1.5575 2.9175 -2.875 2.875 C-5.01871492 2.75787127 -5.01871492 2.75787127 -7 3 C-7.66 3.66 -8.32 4.32 -9 5 C-8.67673447 8.59679066 -8.67673447 8.59679066 -8 12 C-4.98968256 12.93423645 -4.13349732 13.04449911 -1 12 C-0.67 11.01 -0.34 10.02 0 9 C-1.65 9 -3.3 9 -5 9 C-5 8.34 -5 7.68 -5 7 C-2.69 7 -0.38 7 2 7 C2 9.31 2 11.62 2 14 C-0.77421243 15.88646445 -2.13239454 15.99303187 -5.5625 15.8125 C-10.33357825 14.6847906 -10.33357825 14.6847906 -12 12 C-13.08444457 8.43682497 -13.30100515 6.69706457 -11.8125 3.25 C-8.15457864 -1.2908679 -5.56659449 -1.26513511 0 0 Z " fill="#F7F8F9" transform="translate(205,73)"/>
<path d="M0 0 C0.33 0.99 0.66 1.98 1 3 C-1.01822917 2.90234375 -3.03645833 2.8046875 -5.0546875 2.70703125 C-5.69664062 2.80371094 -6.33859375 2.90039062 -7 3 C-9.36692966 5.84826598 -9.36692966 5.84826598 -8.625 9.1875 C-8.41875 10.115625 -8.2125 11.04375 -8 12 C-4.98968256 12.93423645 -4.13349732 13.04449911 -1 12 C-0.67 11.01 -0.34 10.02 0 9 C-1.65 9 -3.3 9 -5 9 C-5 8.34 -5 7.68 -5 7 C-2.69 7 -0.38 7 2 7 C2 9.31 2 11.62 2 14 C-0.75167397 15.8711383 -2.16177901 15.99432354 -5.5625 15.875 C-9 15 -9 15 -10.9375 13.375 C-12.422273 10.05609564 -12.38534485 7.59655194 -12 4 C-9.000693 -1.42731744 -5.65917526 -1.13183505 0 0 Z " fill="#F7F9FA" transform="translate(404,73)"/>
<path d="M0 0 C3.63 0 7.26 0 11 0 C11 0.66 11 1.32 11 2 C8.03 2 5.06 2 2 2 C2 3.32 2 4.64 2 6 C4.64 6 7.28 6 10 6 C10 6.99 10 7.98 10 9 C7.36 9 4.72 9 2 9 C2 10.32 2 11.64 2 13 C4.97 13 7.94 13 11 13 C11 13.99 11 14.98 11 16 C7.37 16 3.74 16 0 16 C0 10.72 0 5.44 0 0 Z " fill="#EBEDEE" transform="translate(139,73)"/>
<path d="M0 0 C0.99 0 1.98 0 3 0 C4.60546875 1.6796875 4.60546875 1.6796875 6.1875 3.875 C6.71730469 4.59429687 7.24710938 5.31359375 7.79296875 6.0546875 C9 8 9 8 9 10 C9.66 10 10.32 10 11 10 C11 6.7 11 3.4 11 0 C11.66 0 12.32 0 13 0 C13 5.28 13 10.56 13 16 C9.36804504 14.78934835 8.57103808 13.46308874 6.3125 10.4375 C5.68988281 9.61121094 5.06726563 8.78492187 4.42578125 7.93359375 C3.95527344 7.29550781 3.48476562 6.65742187 3 6 C2.67 9.3 2.34 12.6 2 16 C1.34 16 0.68 16 0 16 C0 10.72 0 5.44 0 0 Z " fill="#F9FAFB" transform="translate(165,73)"/>
<path d="M0 0 C4.39718646 1.09929662 4.79997334 1.55450729 7.25 5.0625 C8.03117187 6.16271484 8.03117187 6.16271484 8.828125 7.28515625 C9.21484375 7.85105469 9.6015625 8.41695312 10 9 C10.33 6.03 10.66 3.06 11 0 C11.66 0 12.32 0 13 0 C13 5.28 13 10.56 13 16 C9.23277644 12.98622115 6.71323896 10.81863262 4 7 C4 6.34 4 5.68 4 5 C3.34 5 2.68 5 2 5 C2 8.63 2 12.26 2 16 C1.34 16 0.68 16 0 16 C0 10.72 0 5.44 0 0 Z " fill="#F8F9FB" transform="translate(364,73)"/>
<path d="M0 0 C0 0.66 0 1.32 0 2 C23.265 2.495 23.265 2.495 47 3 C46.67 3.66 46.34 4.32 46 5 C28.84 5 11.68 5 -6 5 C-5.67 3.68 -5.34 2.36 -5 1 C-3 0 -3 0 0 0 Z " fill="#F4F6F4" transform="translate(36,23)"/>
<path d="M0 0 C2.743125 -0.04125 5.48625 -0.0825 8.3125 -0.125 C9.60281128 -0.15231201 9.60281128 -0.15231201 10.91918945 -0.18017578 C11.60198975 -0.1851709 12.28479004 -0.19016602 12.98828125 -0.1953125 C13.68477783 -0.20578613 14.38127441 -0.21625977 15.09887695 -0.22705078 C17 0 17 0 20 2 C19.01 2 18.02 2 17 2 C17.33 2.99 17.66 3.98 18 5 C13.38 5 8.76 5 4 5 C4 4.34 4 3.68 4 3 C6.97 3 9.94 3 13 3 C13 2.34 13 1.68 13 1 C9.04 1 5.08 1 1 1 C1 10.9 1 20.8 1 31 C0.67 31 0.34 31 0 31 C0 20.77 0 10.54 0 0 Z " fill="#E4E8E9" transform="translate(319,32)"/>
<path d="M0 0 C1.91015625 0.23046875 1.91015625 0.23046875 3.91015625 2.23046875 C4.28515625 4.66796875 4.28515625 4.66796875 3.91015625 7.23046875 C1.91015625 9.04296875 1.91015625 9.04296875 -0.08984375 10.23046875 C-0.08984375 9.57046875 -0.08984375 8.91046875 -0.08984375 8.23046875 C-2.39984375 8.23046875 -4.70984375 8.23046875 -7.08984375 8.23046875 C-7.13226098 5.897521 -7.13077312 3.56344308 -7.08984375 1.23046875 C-5.19495423 -0.66442077 -2.51845229 0.05027763 0 0 Z M-6.08984375 2.23046875 C-6.08984375 3.88046875 -6.08984375 5.53046875 -6.08984375 7.23046875 C-3.77984375 7.23046875 -1.46984375 7.23046875 0.91015625 7.23046875 C0.58015625 5.58046875 0.25015625 3.93046875 -0.08984375 2.23046875 C-2.06984375 2.23046875 -4.04984375 2.23046875 -6.08984375 2.23046875 Z " fill="#EFF0F0" transform="translate(328.08984375,72.76953125)"/>
<path d="M0 0 C0.99 0 1.98 0 3 0 C3 5.28 3 10.56 3 16 C2.01 16 1.02 16 0 16 C0 10.72 0 5.44 0 0 Z " fill="#EAF0F0" transform="translate(346,73)"/>
<path d="M0 0 C0.99 0 1.98 0 3 0 C3 5.28 3 10.56 3 16 C2.01 16 1.02 16 0 16 C0 10.72 0 5.44 0 0 Z " fill="#F2F9FA" transform="translate(221,73)"/>
<path d="M0 0 C5.61 0 11.22 0 17 0 C17 0.66 17 1.32 17 2 C8.585 2.495 8.585 2.495 0 3 C0 2.01 0 1.02 0 0 Z " fill="#FAFEFE" transform="translate(356,33)"/>
<path d="M0 0 C3.63 0 7.26 0 11 0 C11 0.99 11 1.98 11 3 C7.37 3 3.74 3 0 3 C0 2.01 0 1.02 0 0 Z " fill="#F4F6F7" transform="translate(139,86)"/>
<path d="M0 0 C3.63 0 7.26 0 11 0 C11 0.66 11 1.32 11 2 C8.03 2 5.06 2 2 2 C2 3.32 2 4.64 2 6 C1.01 6.33 0.02 6.66 -1 7 C-0.67 4.69 -0.34 2.38 0 0 Z " fill="#F6F9F9" transform="translate(268,73)"/>
<path d="M0 0 C0.33 0 0.66 0 1 0 C1.04898437 0.63808594 1.09796875 1.27617188 1.1484375 1.93359375 C1.22320312 2.75988281 1.29796875 3.58617188 1.375 4.4375 C1.44460938 5.26121094 1.51421875 6.08492188 1.5859375 6.93359375 C1.72257812 7.61550781 1.85921875 8.29742187 2 9 C2.66 9.33 3.32 9.66 4 10 C3.34 11.98 2.68 13.96 2 16 C1.34 15.67 0.68 15.34 0 15 C0 10.05 0 5.1 0 0 Z " fill="#F2F4F4" transform="translate(319,73)"/>
<path d="M0 0 C2.31 0 4.62 0 7 0 C7 1.65 7 3.3 7 5 C6.34 5 5.68 5 5 5 C5 4.01 5 3.02 5 2 C3.35 2 1.7 2 0 2 C0 1.34 0 0.68 0 0 Z " fill="#EFF0F2" transform="translate(399,80)"/>
<path d="M0 0 C0.99 0.33 1.98 0.66 3 1 C3 2.65 3 4.3 3 6 C0 5 0 5 -1.1875 2.9375 C-1.5896875 1.9784375 -1.5896875 1.9784375 -2 1 C-1.34 0.67 -0.68 0.34 0 0 Z " fill="#F1F2F2" transform="translate(61,66)"/>
<path d="M0 0 C-0.33 0.99 -0.66 1.98 -1 3 C-1.66 3 -2.32 3 -3 3 C-3 3.66 -3 4.32 -3 5 C-3.99 5 -4.98 5 -6 5 C-5.625 3.0625 -5.625 3.0625 -5 1 C-3 0 -3 0 0 0 Z " fill="#1D2919" transform="translate(36,23)"/>
<path d="" fill="#FFFFFF" transform="translate(0,0)"/>
<path d="" fill="#FFFFFF" transform="translate(0,0)"/>
</svg>
